{
  "accessors": [
    {
      "bufferView": 3,
      "componentType": 5126,
      "count": 4769,
      "max": [
        0.11613663285970688,
        0.2526492476463318,
        1.2082411050796509
      ],
      "min": [
        -0.1198904812335968,
        -0.13347399234771729,
        -1.9117631912231445
      ],
      "type": "VEC3"
    },
    {
      "bufferView": 3,
      "byteOffset": 57228,
      "componentType": 5126,
      "count": 4769,
      "max": [
        1.0,
        1.0,
        1.0
      ],
      "min": [
        -1.0,
        -1.0,
        -1.0
      ],
      "type": "VEC3"
    },
    {
      "bufferView": 4,
      "componentType": 5126,
      "count": 4769,
      "max": [
        1.0,
        1.0,
        1.0,
        1.0
      ],
      "min": [
        -1.0,
        -1.0,
        -1.0,
        1.0
      ],
      "type": "VEC4"
    },
    {
      "bufferView": 2,
      "componentType": 5126,
      "count": 4769,
      "max": [
        0.995583713054657,
        0.9994276762008667
      ],
      "min": [
        0.0005723595968447626,
        0.0005723301437683403
      ],
      "type": "VEC2"
    },
    {
      "bufferView": 1,
      "componentType": 5125,
      "count": 15615,
      "type": "SCALAR"
    },
    {
      "bufferView": 5,
      "componentType": 5126,
      "count": 8,
      "max": [
        100.00001525878906,
        4.155627667370783e-39,
        7.152549983402423e-07,
        0.0,
        1.0000001192092896,
        100.00000762939453,
        1.0000001192092896,
        0.0,
        3.7901036473619317e-31,
        0.9739890098571777,
        100.00001525878906,
        0.0,
        0.028493346646428108,
        0.3762824833393097,
        0.30811992287635803,
        1.0
      ],
      "min": [
        6.123234924670329e-17,
        -1.0000001192092896,
        -6.443449006003244e-24,
        0.0,
        0.0,
        6.123234262925839e-17,
        -0.9739909768104553,
        0.0,
        -1.6207341957397148e-07,
        -1.000000238418579,
        5.882104758825335e-08,
        0.0,
        -0.16528411209583282,
        -0.3999168276786804,
        -0.06656879186630249,
        1.0
      ],
      "type": "MAT4"
    },
    {
      "bufferView": 0,
      "componentType": 5123,
      "count": 4769,
      "type": "VEC4"
    },
    {
      "bufferView": 4,
      "byteOffset": 76304,
      "componentType": 5126,
      "count": 4769,
      "max": [
        1.0,
        0.0,
        0.0,
        0.0
      ],
      "min": [
        1.0,
        0.0,
        0.0,
        0.0
      ],
      "type": "VEC4"
    },
    {
      "bufferView": 6,
      "componentType": 5126,
      "count": 62,
      "max": [
        7.083333492279053
      ],
      "min": [
        0.0
      ],
      "type": "SCALAR"
    },
    {
      "bufferView": 8,
      "componentType": 5126,
      "count": 62,
      "max": [
        0.997858464717865,
        1.5463477275576393e-24,
        3.21482453387888e-24,
        1.0
      ],
      "min": [
        -0.8537315130233765,
        -3.2217241085711692e-24,
        -2.7504873972151774e-24,
        -0.479975163936615
      ],
      "type": "VEC4"
    },
    {
      "bufferView": 6,
      "byteOffset": 248,
      "componentType": 5126,
      "count": 67,
      "max": [
        7.083333492279053
      ],
      "min": [
        0.0
      ],
      "type": "SCALAR"
    },
    {
      "bufferView": 8,
      "byteOffset": 992,
      "componentType": 5126,
      "count": 67,
      "max": [
        0.9934759140014648,
        4.078444959532135e-08,
        3.5761721051130735e-07,
        0.21951723098754883
      ],
      "min": [
        0.9756086468696594,
        2.596984183256268e-09,
        3.552934515482775e-07,
        0.11404210329055786
      ],
      "type": "VEC4"
    },
    {
      "bufferView": 6,
      "byteOffset": 516,
      "componentType": 5126,
      "count": 64,
      "max": [
        7.083333492279053
      ],
      "min": [
        0.0
      ],
      "type": "SCALAR"
    },
    {
      "bufferView": 7,
      "componentType": 5126,
      "count": 64,
      "max": [
        -0.024532029405236244,
        0.6243215799331665,
        0.09871526062488556
      ],
      "min": [
        -0.04171472787857056,
        0.6243215799331665,
        0.09871526062488556
      ],
      "type": "VEC3"
    }
  ],
  "animations": [
    {
      "channels": [
        {
          "sampler": 0,
          "target": {
            "node": 8,
            "path": "rotation"
          }
        },
        {
          "sampler": 1,
          "target": {
            "node": 10,
            "path": "rotation"
          }
        },
        {
          "sampler": 2,
          "target": {
            "node": 12,
            "path": "translation"
          }
        }
      ],
      "name": "Armature|ArmatureAction",
      "samplers": [
        {
          "input": 8,
          "interpolation": "LINEAR",
          "output": 9
        },
        {
          "input": 10,
          "interpolation": "LINEAR",
          "output": 11
        },
        {
          "input": 12,
          "interpolation": "LINEAR",
          "output": 13
        }
      ]
    }
  ],
  "asset": {
    "extras": {
      "author": "Lagst (https://sketchfab.com/Lagst)",
      "license": "SKETCHFAB Standard (https://sketchfab.com/licenses)",
      "source": "https://sketchfab.com/3d-models/switch-knife-5d910a6f6aa548f3b06b8e04e99369ad",
      "title": "Switch knife"
    },
    "generator": "Sketchfab-16.56.0",
    "version": "2.0"
  },
  "bufferViews": [
    {
      "buffer": 0,
      "byteLength": 38152,
      "byteStride": 8,
      "name": "shortBufferViews",
      "target": 34962
    },
    {
      "buffer": 0,
      "byteLength": 62460,
      "byteOffset": 38152,
      "name": "floatBufferViews",
      "target": 34963
    },
    {
      "buffer": 0,
      "byteLength": 38152,
      "byteOffset": 100612,
      "byteStride": 8,
      "name": "floatBufferViews",
      "target": 34962
    },
    {
      "buffer": 0,
      "byteLength": 114456,
      "byteOffset": 138764,
      "byteStride": 12,
      "name": "floatBufferViews",
      "target": 34962
    },
    {
      "buffer": 0,
      "byteLength": 152608,
      "byteOffset": 253220,
      "byteStride": 16,
      "name": "floatBufferViews",
      "target": 34962
    },
    {
      "buffer": 0,
      "byteLength": 512,
      "byteOffset": 405828,
      "name": "floatBufferViews"
    },
    {
      "buffer": 0,
      "byteLength": 772,
      "byteOffset": 406340,
      "name": "floatBufferViews"
    },
    {
      "buffer": 0,
      "byteLength": 768,
      "byteOffset": 407112,
      "byteStride": 12,
      "name": "floatBufferViews"
    },
    {
      "buffer": 0,
      "byteLength": 2064,
      "byteOffset": 407880,
      "byteStride": 16,
      "name": "floatBufferViews"
    }
  ],
  "buffers": [
    {
      "byteLength": 409944,
      "uri": "scene.bin"
    }
  ],
  "images": [
    {
      "uri": "textures/Light_iron_baseColor.png"
    },
    {
      "uri": "textures/Light_iron_metallicRoughness.png"
    },
    {
      "uri": "textures/Light_iron_normal.png"
    }
  ],
  "materials": [
    {
      "doubleSided": true,
      "name": "Light_iron",
      "normalTexture": {
        "index": 2
      },
      "pbrMetallicRoughness": {
        "baseColorTexture": {
          "index": 0
        },
        "metallicRoughnessTexture": {
          "index": 1
        }
      }
    }
  ],
  "meshes": [
    {
      "name": "Knife_Light iron_0",
      "primitives": [
        {
          "attributes": {
            "JOINTS_0": 6,
            "NORMAL": 1,
            "POSITION": 0,
            "TANGENT": 2,
            "TEXCOORD_0": 3,
            "TEXCOORD_1": 3,
            "TEXCOORD_2": 3,
            "WEIGHTS_0": 7
          },
          "indices": 4,
          "material": 0,
          "mode": 4
        }
      ]
    }
  ],
  "nodes": [
    {
      "children": [
        1
      ],
      "matrix": [
        1.0,
        0.0,
        0.0,
        0.0,
        0.0,
        2.220446049250313e-16,
        -1.0,
        0.0,
        0.0,
        1.0,
        2.220446049250313e-16,
        0.0,
        0.0,
        0.0,
        0.0,
        1.0
      ],
      "name": "Sketchfab_model"
    },
    {
      "children": [
        2
      ],
      "matrix": [
        0.009999999776482582,
        0.0,
        0.0,
        0.0,
        0.0,
        0.0,
        0.009999999776482582,
        0.0,
        0.0,
        -0.009999999776482582,
        0.0,
        0.0,
        0.0,
        0.0,
        0.0,
        1.0
      ],
      "name": "32693546f4914dd0a7aae01f96749148.fbx"
    },
    {
      "children": [
        3
      ],
      "name": "Object_2"
    },
    {
      "children": [
        4,
        16
      ],
      "name": "RootNode"
    },
    {
      "children": [
        5
      ],
      "name": "Armature",
      "rotation": [
        -0.7071068286895752,
        0.0,
        0.0,
        0.7071068286895752
      ],
      "scale": [
        100.0,
        100.0,
        100.0
      ],
      "translation": [
        0.0008604831527918577,
        5.839476585388184,
        -39.99168014526367
      ]
    },
    {
      "children": [
        6,
        15,
        14
      ],
      "name": "Object_5"
    },
    {
      "children": [
        7
      ],
      "name": "_rootJoint"
    },
    {
      "children": [
        8,
        10,
        12
      ],
      "name": "Root_00",
      "rotation": [
        4.9711147198649996e-08,
        0.0,
        0.0,
        1.0
      ],
      "scale": [
        1.0,
        0.9999999403953552,
        1.0
      ],
      "translation": [
        -8.604831236880273e-06,
        -0.7161183953285217,
        0.008173994719982147
      ]
    },
    {
      "children": [
        9
      ],
      "name": "Blade_01",
      "rotation": [
        -2.030062873359384e-08,
        -3.2217241085711692e-24,
        6.540302455687004e-32,
        1.0
      ],
      "translation": [
        8.604831236880273e-06,
        0.7161184549331665,
        -0.008174065500497818
      ]
    },
    {
      "name": "Blade_end_04",
      "rotation": [
        0.0,
        -8.407790785948902e-43,
        0.0,
        1.0
      ],
      "translation": [
        0.0,
        0.3211357593536377,
        0.0
      ]
    },
    {
      "children": [
        11
      ],
      "name": "Switch Lock_02",
      "rotation": [
        0.9934759140014648,
        4.078443538446663e-08,
        3.5529347996998695e-07,
        0.11404213309288025
      ],
      "scale": [
        1.0,
        1.0,
        0.9999977946281433
      ],
      "translation": [
        -0.028493452817201614,
        0.7161184549331665,
        -0.008174065500497818
      ]
    },
    {
      "name": "Switch Lock_end_05",
      "rotation": [
        2.7755575615628914e-17,
        1.9852334701272664e-23,
        1.3234889800848443e-23,
        1.0
      ],
      "translation": [
        0.0,
        0.18662996590137482,
        0.0
      ]
    },
    {
      "children": [
        13
      ],
      "name": "Switch_03",
      "rotation": [
        0.5000000596046448,
        -0.5,
        0.5,
        0.5000001192092896
      ],
      "translation": [
        -0.04171472787857056,
        0.6243215799331665,
        0.09871526062488556
      ]
    },
    {
      "name": "Switch_end_06",
      "rotation": [
        6.617444900424222e-24,
        6.617444900424222e-24,
        4.715294970809647e-24,
        1.0
      ],
      "translation": [
        0.0,
        0.0906115248799324,
        0.0
      ]
    },
    {
      "matrix": [
        100.00001192092896,
        0.0,
        0.0,
        0.0,
        0.0,
        1.1385507679746935e-12,
        -100.00000429153451,
        0.0,
        0.0,
        100.00001192092995,
        1.13855085483923e-12,
        0.0,
        -0.49661314114928246,
        -7.007507125678103e-07,
        -1.8256939426919416e-06,
        1.0
      ],
      "name": "Object_14"
    },
    {
      "mesh": 0,
      "name": "Object_15",
      "skin": 0
    },
    {
      "name": "Knife",
      "rotation": [
        -0.7071068286895752,
        0.0,
        0.0,
        0.7071068286895752
      ],
      "scale": [
        100.0,
        100.0,
        100.0
      ],
      "translation": [
        -0.496613085269928,
        0.0,
        0.0
      ]
    }
  ],
  "samplers": [
    {
      "magFilter": 9729,
      "minFilter": 9987,
      "wrapS": 10497,
      "wrapT": 10497
    }
  ],
  "scene": 0,
  "scenes": [
    {
      "name": "Sketchfab_Scene",
      "nodes": [
        0
      ]
    }
  ],
  "skins": [
    {
      "inverseBindMatrices": 5,
      "joints": [
        6,
        7,
        8,
        9,
        10,
        11,
        12,
        13
      ],
      "skeleton": 6
    }
  ],
  "textures": [
    {
      "sampler": 0,
      "source": 0
    },
    {
      "sampler": 0,
      "source": 1
    },
    {
      "sampler": 0,
      "source": 2
    }
  ]
}
